<?xml version="1.0" encoding="UTF-8"?>
<!DOCTYPE svg PUBLIC "-//W3C//DTD SVG 1.1//EN" "http://www.w3.org/Graphics/SVG/1.1/DTD/svg11.dtd">
<!-- Creator: CorelDRAW X7 -->
<svg xmlns="http://www.w3.org/2000/svg" xml:space="preserve" width="18.1525cm" height="5.70652cm" version="1.1" style="shape-rendering:geometricPrecision; text-rendering:geometricPrecision; image-rendering:optimizeQuality; fill-rule:evenodd; clip-rule:evenodd"
viewBox="0 0 18153 5707"
 xmlns:xlink="http://www.w3.org/1999/xlink">
 <defs>
  <style type="text/css">
   <![CDATA[
    .fil0 {fill:none}
    .fil3 {fill:#5D9CEC}
    .fil4 {fill:#5D9CEC;fill-rule:nonzero}
    .fil1 {fill:#6666FF;fill-rule:nonzero}
    .fil2 {fill:#C74591;fill-rule:nonzero}
   ]]>
  </style>
 </defs>
 <g id="Layer_x0020_1">
  <metadata id="CorelCorpID_0Corel-Layer"/>
  <rect class="fil0" x="-466" y="-254" width="4199" height="4199"/>
  <polygon class="fil1" points="11307,4933 11307,4933 10483,4933 10483,4933 "/>
  <polygon class="fil1" points="10869,3589 10869,856 11632,856 11632,4933 "/>
  <polygon class="fil1" points="8093,4929 8093,852 8893,852 8893,852 8093,852 8856,2249 8856,4929 "/>
  <path class="fil1" d="M7630 4770l-889 0 -352 -928 0 0 352 928 889 0 0 0zm-2877 -928l-338 928 -874 0 1584 -4077 872 0 363 906 -363 -906 -872 0 429 951 567 1509 -1951 -2 583 691 0 0z"/>
  <polygon class="fil2" points="6110,3141 5543,1632 4992,3141 "/>
  <polygon class="fil3" points="11470,4929 10645,4929 8993,2249 8230,852 9029,852 10707,3584 "/>
  <polygon class="fil3" points="6320,852 5448,852 5878,1803 6444,3312 4493,3310 5077,4001 6712,4001 7064,4929 7953,4929 "/>
  <path class="fil4" d="M12346 4254c59,0 116,15 170,45 55,29 98,72 129,127 31,55 46,113 46,173 0,60 -15,118 -45,172 -31,55 -73,97 -128,128 -55,30 -112,46 -172,46 -60,0 -117,-16 -172,-46 -54,-31 -97,-73 -128,-128 -30,-54 -45,-112 -45,-172 0,-60 15,-118 46,-173 31,-55 74,-98 129,-127 54,-30 111,-45 170,-45zm0 68c-47,0 -93,12 -137,36 -43,24 -78,58 -103,102 -25,44 -37,91 -37,139 0,48 12,94 37,138 24,44 58,78 102,102 44,25 90,37 138,37 48,0 94,-12 138,-37 44,-24 78,-58 102,-102 25,-44 37,-90 37,-138 0,-48 -12,-95 -37,-139 -25,-44 -60,-78 -103,-102 -44,-24 -90,-36 -137,-36zm83 329l73 24c-11,38 -30,67 -57,88 -26,20 -57,30 -94,30 -51,0 -93,-17 -125,-51 -33,-33 -49,-80 -49,-139 0,-39 7,-74 22,-104 14,-31 35,-53 62,-68 27,-15 57,-23 91,-23 37,0 68,9 92,27 25,17 44,45 58,83l-73 18c-8,-22 -19,-38 -32,-48 -14,-10 -29,-15 -48,-15 -27,0 -49,10 -67,31 -17,20 -26,52 -26,96 0,44 9,77 26,97 17,21 37,31 61,31 20,0 37,-6 52,-17 15,-12 26,-32 34,-60z"/>
  <path id="1" class="fil4" d="M13408 4811l0 117 -444 0c5,-45 20,-87 44,-127 24,-40 71,-93 142,-159 57,-53 92,-89 105,-108 17,-26 26,-52 26,-78 0,-28 -8,-50 -23,-65 -15,-15 -36,-23 -62,-23 -27,0 -48,8 -64,24 -15,16 -24,43 -26,80l-127 -13c8,-70 31,-120 71,-150 40,-31 89,-46 149,-46 65,0 116,18 154,53 37,35 55,79 55,132 0,30 -5,58 -16,85 -10,27 -27,55 -50,85 -16,19 -44,47 -84,84 -40,37 -65,61 -76,73 -10,12 -19,24 -26,36l252 0z"/>
  <path id="2" class="fil4" d="M13708 4263c64,0 114,23 150,69 43,54 65,144 65,270 0,125 -22,215 -65,270 -36,45 -86,68 -150,68 -64,0 -116,-25 -155,-74 -40,-50 -60,-138 -60,-266 0,-124 22,-214 65,-269 36,-45 86,-68 150,-68zm0 105c-15,0 -29,5 -40,15 -12,10 -21,27 -28,53 -8,33 -13,88 -13,166 0,78 4,131 12,160 8,29 17,49 29,58 12,10 25,15 40,15 15,0 29,-5 41,-15 11,-10 21,-27 27,-53 9,-32 13,-87 13,-165 0,-78 -4,-131 -12,-160 -7,-30 -17,-49 -29,-59 -11,-10 -25,-15 -40,-15z"/>
  <path id="3" class="fil4" d="M14435 4811l0 117 -444 0c5,-45 19,-87 43,-127 24,-40 72,-93 143,-159 57,-53 92,-89 105,-108 17,-26 26,-52 26,-78 0,-28 -8,-50 -23,-65 -15,-15 -36,-23 -62,-23 -27,0 -48,8 -64,24 -15,16 -24,43 -27,80l-126 -13c8,-70 31,-120 71,-150 39,-31 89,-46 149,-46 65,0 116,18 153,53 38,35 56,79 56,132 0,30 -5,58 -16,85 -10,27 -27,55 -50,85 -16,19 -44,47 -84,84 -40,37 -65,61 -76,73 -10,12 -19,24 -26,36l252 0z"/>
  <path id="4" class="fil4" d="M14735 4263c64,0 114,23 150,69 43,54 65,144 65,270 0,125 -22,215 -65,270 -36,45 -86,68 -150,68 -64,0 -116,-25 -156,-74 -39,-50 -59,-138 -59,-266 0,-124 22,-214 65,-269 36,-45 86,-68 150,-68zm0 105c-15,0 -29,5 -40,15 -12,10 -21,27 -28,53 -8,33 -13,88 -13,166 0,78 4,131 12,160 8,29 17,49 29,58 12,10 25,15 40,15 15,0 29,-5 41,-15 11,-10 20,-27 27,-53 9,-32 13,-87 13,-165 0,-78 -4,-131 -12,-160 -7,-30 -17,-49 -29,-59 -11,-10 -25,-15 -40,-15z"/>
 </g>
</svg>
