<?xml version="1.0" encoding="UTF-8"?>
<!DOCTYPE svg PUBLIC "-//W3C//DTD SVG 1.1//EN" "http://www.w3.org/Graphics/SVG/1.1/DTD/svg11.dtd">
<!-- Creator: CorelDRAW X7 -->
<svg xmlns="http://www.w3.org/2000/svg" xml:space="preserve" width="13.8091cm" height="8.72912cm" version="1.1" style="shape-rendering:geometricPrecision; text-rendering:geometricPrecision; image-rendering:optimizeQuality; fill-rule:evenodd; clip-rule:evenodd"
viewBox="0 0 13809 8729"
 xmlns:xlink="http://www.w3.org/1999/xlink">
 <defs>
  <style type="text/css">
   <![CDATA[
    .str0 {stroke:#13B4E2;stroke-width:7.62}
    .fil0 {fill:none}
    .fil44 {fill:none;fill-rule:nonzero}
    .fil34 {fill:#0F76B9}
    .fil16 {fill:#2884C5}
    .fil25 {fill:#2AA77D}
    .fil2 {fill:#2D308D}
    .fil26 {fill:#368FC9}
    .fil20 {fill:#46BAB1}
    .fil23 {fill:#47B9B1}
    .fil21 {fill:#48B6B3}
    .fil37 {fill:#49B5B7}
    .fil19 {fill:#49B7B4}
    .fil17 {fill:#49B8B2}
    .fil24 {fill:#4AB7B1}
    .fil40 {fill:#4BB1C0}
    .fil18 {fill:#4CB3BC}
    .fil30 {fill:#4DCAF6}
    .fil4 {fill:#4E4FA1}
    .fil29 {fill:#4E8AC8}
    .fil27 {fill:#4E8CC9}
    .fil41 {fill:#4EAFC0}
    .fil11 {fill:#4F5498}
    .fil28 {fill:#4F8BC9}
    .fil35 {fill:#4F8BCA}
    .fil32 {fill:#5188C8}
    .fil3 {fill:#524A9F}
    .fil31 {fill:#5287C9}
    .fil33 {fill:#5386C7}
    .fil38 {fill:#5ACAF0}
    .fil22 {fill:#5BCBF0}
    .fil39 {fill:#6EC0CE}
    .fil5 {fill:#9ADBF7}
    .fil14 {fill:#9BDCFA}
    .fil7 {fill:#9BDDF7}
    .fil6 {fill:#9DDDF6}
    .fil36 {fill:#AFE3F9}
    .fil9 {fill:#DD868E}
    .fil10 {fill:#F6AC9F}
    .fil8 {fill:#F9B8B4}
    .fil42 {fill:#13B4E2;fill-rule:nonzero}
    .fil43 {fill:#FEFEFF;fill-rule:nonzero}
    .fil1 {fill:url(#id0)}
    .fil13 {fill:url(#id1)}
    .fil15 {fill:url(#id2)}
    .fil12 {fill:url(#id3)}
   ]]>
  </style>
  <linearGradient id="id0" gradientUnits="userSpaceOnUse" x1="7552.52" y1="4229.13" x2="13809.1" y2="4229.13">
   <stop offset="0" style="stop-opacity:1; stop-color:#5D9CEC"/>
   <stop offset="1" style="stop-opacity:1; stop-color:#6666FF"/>
  </linearGradient>
  <linearGradient id="id1" gradientUnits="userSpaceOnUse" x1="8656.28" y1="5469.1" x2="12799.1" y2="5469.1">
   <stop offset="0" style="stop-opacity:1; stop-color:#4B4BC2"/>
   <stop offset="1" style="stop-opacity:1; stop-color:#4A55A5"/>
  </linearGradient>
  <linearGradient id="id2" gradientUnits="userSpaceOnUse" x1="10458" y1="5231.77" x2="12594.1" y2="5231.77">
   <stop offset="0" style="stop-opacity:1; stop-color:#585ACC"/>
   <stop offset="1" style="stop-opacity:1; stop-color:#5E6BC4"/>
  </linearGradient>
  <linearGradient id="id3" gradientUnits="userSpaceOnUse" x1="8559.6" y1="5479.88" x2="12863.8" y2="5479.88">
   <stop offset="0" style="stop-opacity:1; stop-color:#2D308F"/>
   <stop offset="1" style="stop-opacity:1; stop-color:#2F2F8F"/>
  </linearGradient>
 </defs>
 <g id="Layer_x0020_1">
  <metadata id="CorelCorpID_0Corel-Layer"/>
  <rect class="fil0" width="13809" height="8729"/>
  <path class="fil1" d="M12680 701c-211,-268 -542,-568 -1347,-678 -804,-110 -1635,221 -2213,678 -1822,1438 -1802,3874 -1209,5131 646,1371 3417,3413 5898,2309l0 -4251c-640,-139 -1033,-496 -1209,-1044 -173,-539 588,-1502 80,-2145z"/>
  <path class="fil2" d="M8419 8101l4499 33c11,0 14,-64 10,-76l-259 -820c-3,-11 -31,-21 -43,-21l-3711 -22c-12,0 -26,11 -32,22l-486 863c-5,10 10,21 22,21z"/>
  <path class="fil3" d="M8570 8080l4283 -11c12,0 25,-32 21,-43l-183 -615c-3,-11 -10,-22 -21,-22l-3690 -21c-12,0 -81,33 -86,43l-346 647c-5,11 10,22 22,22z"/>
  <path class="fil4" d="M8958 7346l2492 0c12,0 22,-9 22,-21l0 -22c0,-12 -10,-21 -22,-21l-2440 0c-12,0 -33,-2 -37,9l-15 34c-4,11 -12,21 0,21z"/>
  <rect class="fil4" x="11548" y="7281" width="345.206" height="75.5091" rx="22" ry="22"/>
  <rect class="fil5" x="9142" y="7260" width="118.679" height="43.1444" rx="22" ry="22"/>
  <rect class="fil6" x="9153" y="7325" width="83.0779" height="44.6225" rx="22" ry="22"/>
  <rect class="fil6" x="10012" y="7281" width="100.28" height="43.1444" rx="22" ry="22"/>
  <rect class="fil6" x="10018" y="7346" width="84.1227" height="53.9241" rx="22" ry="22"/>
  <rect class="fil7" x="10016" y="7497" width="118.679" height="53.9496" rx="22" ry="22"/>
  <rect class="fil7" x="10005" y="7422" width="64.7294" height="43.1444" rx="22" ry="22"/>
  <rect class="fil7" x="11138" y="7346" width="126.324" height="53.9241" rx="22" ry="22"/>
  <rect class="fil7" x="11192" y="7508" width="86.2889" height="43.1444" rx="22" ry="22"/>
  <rect class="fil7" x="11116" y="7433" width="151.044" height="43.1699" rx="22" ry="22"/>
  <path class="fil8" d="M9429 8296c-284,-235 -560,-269 -723,-194 116,-206 115,-334 446,-670 46,-46 103,-36 151,0 75,-100 160,-126 259,-43 65,-63 97,-97 163,-82 64,15 74,50 96,125 258,-52 248,141 0,497 528,-119 442,226 65,194 -141,119 -292,183 -457,173z"/>
  <path class="fil9" d="M9858 7874l152 -366c34,153 58,351 -46,358l-106 8z"/>
  <path class="fil10" d="M8918 8057c294,-122 548,-64 756,198 -90,34 -167,43 -235,36 -204,-21 -333,-185 -521,-234z"/>
  <path class="fil11" d="M9344 8727l-1197 0c156,-183 389,-523 490,-588 312,-201 866,-5 798,250l-91 338z"/>
  <path class="fil8" d="M11934 8293c285,-234 560,-268 723,-193 -115,-207 -115,-335 -446,-670 -46,-47 -103,-37 -151,0 -75,-101 -160,-126 -259,-43 -65,-63 -97,-98 -163,-82 -64,14 -74,49 -96,125 -258,-53 -248,140 0,496 -528,-119 -442,227 -64,194 140,119 291,184 456,173z"/>
  <path class="fil9" d="M11505 7871l-152 -365c-34,153 -58,350 46,357l106 8z"/>
  <path class="fil10" d="M12445 8054c-294,-122 -547,-64 -756,198 90,35 167,44 236,36 203,-21 332,-185 520,-234z"/>
  <path class="fil11" d="M12019 8724l1197 0c-156,-183 -389,-523 -490,-588 -312,-201 -866,-5 -798,250l91 338z"/>
  <path class="fil12" d="M8647 4131l4141 21c41,0 77,72 76,120l-53 2470c-1,48 -40,86 -87,86l-3971 0c-47,0 -117,-49 -118,-97l-75 -2513c-2,-48 39,-87 87,-87z"/>
  <path class="fil13" d="M8764 4228l3949 0c43,0 88,65 86,108l-86 2287c-2,44 -65,84 -108,84l-3762 3c-44,0 -76,-36 -78,-79l-109 -2273c-2,-43 65,-130 108,-130z"/>
  <rect class="fil14" x="9250" y="5189" width="669" height="1359" rx="22" ry="23"/>
  <rect class="fil15" x="10458" y="4606" width="2136" height="1251" rx="43" ry="43"/>
  <rect class="fil16" x="9250" y="5189" width="669" height="1251" rx="22" ry="22"/>
  <line class="fil0" x1="10113" y1="4520" x2="10113" y2= "6526" />
  <rect class="fil17" x="8807" y="3301" width="626" height="108" rx="22" ry="22"/>
  <rect class="fil18" x="10404" y="3301" width="302" height="108" rx="22" ry="22"/>
  <rect class="fil18" x="10318" y="3452" width="388.376" height="86.3143" rx="22" ry="22"/>
  <rect class="fil19" x="9045" y="3430" width="626" height="108" rx="22" ry="22"/>
  <rect class="fil20" x="8829" y="3603" width="323.647" height="86.2888" rx="22" ry="22"/>
  <rect class="fil21" x="9412" y="3732" width="151" height="108" rx="22" ry="22"/>
  <rect class="fil22" x="9109" y="3732" width="237" height="108" rx="22" ry="22"/>
  <rect class="fil23" x="8807" y="3732" width="237" height="108" rx="22" ry="22"/>
  <rect class="fil18" x="10490" y="3581" width="216" height="108" rx="22" ry="22"/>
  <rect class="fil18" x="10296" y="3732" width="388" height="108" rx="22" ry="22"/>
  <rect class="fil24" x="8818" y="3872" width="690.438" height="97.094" rx="22" ry="22"/>
  <rect class="fil25" x="8807" y="4023" width="517.835" height="43.1444" rx="22" ry="22"/>
  <rect class="fil18" x="10361" y="3883" width="323.647" height="75.5346" rx="22" ry="22"/>
  <rect class="fil16" x="10555" y="4034" width="129.459" height="32.3647" rx="22" ry="22"/>
  <rect class="fil26" x="8829" y="4164" width="140.264" height="86.3143" rx="22" ry="22"/>
  <rect class="fil26" x="9066" y="4164" width="312.842" height="97.094" rx="22" ry="22"/>
  <rect class="fil27" x="8829" y="4315" width="463.911" height="86.2888" rx="22" ry="22"/>
  <rect class="fil28" x="8829" y="4466" width="625.734" height="75.5346" rx="22" ry="22"/>
  <rect class="fil28" x="9519" y="4466" width="172.603" height="75.5346" rx="22" ry="22"/>
  <rect class="fil28" x="8829" y="4595" width="323.647" height="86.3143" rx="22" ry="22"/>
  <rect class="fil28" x="9239" y="4595" width="140.239" height="86.3143" rx="22" ry="22"/>
  <rect class="fil28" x="8829" y="4746" width="151.044" height="75.5091" rx="22" ry="22"/>
  <rect class="fil28" x="9109" y="4746" width="323.647" height="86.3143" rx="22" ry="22"/>
  <rect class="fil28" x="8829" y="4897" width="334.452" height="86.2888" rx="22" ry="22"/>
  <rect class="fil28" x="9217" y="4897" width="151.044" height="86.2888" rx="22" ry="22"/>
  <rect class="fil28" x="9433" y="4897" width="161.823" height="97.094" rx="22" ry="22"/>
  <rect class="fil29" x="8829" y="5027" width="680" height="108" rx="22" ry="22"/>
  <rect class="fil30" x="8829" y="5178" width="183.408" height="75.5346" rx="22" ry="22"/>
  <rect class="fil31" x="9109" y="5178" width="140.239" height="79.7139" rx="22" ry="22"/>
  <rect class="fil32" x="8829" y="5329" width="366.817" height="75.5091" rx="22" ry="22"/>
  <rect class="fil33" x="8818" y="5458" width="420.741" height="97.094" rx="22" ry="22"/>
  <rect class="fil34" x="10361" y="4153" width="323.647" height="97.094" rx="22" ry="22"/>
  <rect class="fil35" x="10361" y="4315" width="323.647" height="86.2888" rx="22" ry="22"/>
  <rect class="fil35" x="10426" y="4466" width="269.697" height="86.3143" rx="22" ry="22"/>
  <rect class="fil35" x="10555" y="4595" width="129.459" height="86.3143" rx="22" ry="22"/>
  <rect class="fil35" x="10188" y="4746" width="507.055" height="86.3143" rx="22" ry="22"/>
  <rect class="fil35" x="10296" y="4887" width="388.376" height="97.094" rx="22" ry="22"/>
  <rect class="fil35" x="10339" y="5458" width="356.012" height="86.3143" rx="22" ry="22"/>
  <rect class="fil35" x="10555" y="5307" width="129.459" height="97.094" rx="22" ry="22"/>
  <rect class="fil35" x="10361" y="5178" width="323.647" height="86.3143" rx="22" ry="22"/>
  <rect class="fil0" x="10480" y="5038" width="204.993" height="97.094" rx="22" ry="22"/>
  <rect class="fil36" x="10620" y="4725" width="1240.64" height="53.9496" rx="22" ry="22"/>
  <rect class="fil0" x="10620" y="4811" width="1240.64" height="53.9496" rx="22" ry="22"/>
  <rect class="fil36" x="10598" y="4897" width="550.2" height="64.7293" rx="22" ry="22"/>
  <rect class="fil36" x="10610" y="4984" width="1239.31" height="64.7293" rx="22" ry="22"/>
  <rect class="fil36" x="10609" y="5070" width="1488.78" height="53.9496" rx="22" ry="22"/>
  <rect class="fil36" x="10620" y="5156" width="668.853" height="64.7293" rx="22" ry="22"/>
  <rect class="fil36" x="10620" y="5243" width="1337.73" height="75.5346" rx="22" ry="22"/>
  <rect class="fil36" x="10598" y="5329" width="1121.98" height="64.7293" rx="22" ry="22"/>
  <rect class="fil37" x="9778" y="6839" width="248.112" height="53.9496" rx="22" ry="22"/>
  <rect class="fil38" x="9778" y="6926" width="140.239" height="53.9241" rx="22" ry="22"/>
  <rect class="fil37" x="9778" y="7012" width="474.665" height="64.7293" rx="22" ry="22"/>
  <rect class="fil37" x="9778" y="7120" width="366.791" height="64.7293" rx="22" ry="22"/>
  <rect class="fil39" x="10943" y="6850" width="334.427" height="64.7293" rx="22" ry="22"/>
  <rect class="fil40" x="11353" y="6861" width="183.408" height="53.9241" rx="22" ry="22"/>
  <rect class="fil38" x="11030" y="6936" width="140.264" height="53.9496" rx="22" ry="22"/>
  <rect class="fil41" x="11224" y="6947" width="302.087" height="43.1699" rx="22" ry="22"/>
  <rect class="fil40" x="10965" y="7012" width="388.376" height="53.9496" rx="22" ry="22"/>
  <rect class="fil41" x="11397" y="7012" width="151.018" height="64.7293" rx="22" ry="22"/>
  <rect class="fil38" x="10814" y="7120" width="151.018" height="75.5091" rx="22" ry="22"/>
  <rect class="fil38" x="11030" y="7120" width="140.264" height="86.2888" rx="22" ry="22"/>
  <rect class="fil38" x="11224" y="7120" width="302.087" height="86.2888" rx="22" ry="22"/>
  <g>
   <polygon class="fil42" points="8540,3871 8367,3698 8428,3637 8601,3810 "/>
  </g>
  <g>
   <polygon class="fil42" points="8601,3698 8428,3871 8367,3810 8540,3637 "/>
  </g>
  <g>
   <path class="fil42" d="M10978 3766l86 -86 61 61 -86 86 -61 0 0 -61zm0 61l-31 -30 31 -31 0 61zm86 87l-86 -87 61 -61 86 87 -61 61z"/>
  </g>
  <g>
   <polygon class="fil42" points="11141,3953 11270,3630 11350,3662 11221,3986 "/>
  </g>
  <g>
   <path class="fil42" d="M11452 3827l-86 -86 61 -61 86 86 4 57 -65 4zm61 -61l27 27 -23 30 -4 -57zm-129 91l64 -86 69 52 -64 86 -69 -52z"/>
  </g>
  <g>
   <polygon class="fil43" points="11777,3164 11864,3077 11879,3093 11793,3179 "/>
  </g>
  <g>
   <polygon class="fil43" points="11864,3179 11777,3093 11793,3077 11879,3164 "/>
  </g>
  <g>
   <line class="fil44 str0" x1="12432" y1="6990" x2="12432" y2= "7098" />
  </g>
  <g>
   <line class="fil44 str0" x1="12368" y1="7044" x2="12486" y2= "7044" />
  </g>
  <g>
   <polygon class="fil42" points="10406,2112 10233,1939 10294,1878 10467,2051 "/>
  </g>
  <g>
   <polygon class="fil42" points="10467,1939 10294,2112 10233,2051 10406,1878 "/>
  </g>
  <g>
   <polygon class="fil43" points="9048,1459 9134,1373 9149,1388 9063,1474 "/>
  </g>
  <g>
   <polygon class="fil43" points="9134,1474 9048,1388 9063,1373 9149,1459 "/>
  </g>
  <g>
   <polygon class="fil43" points="13266,6400 13352,6314 13368,6329 13281,6415 "/>
  </g>
  <g>
   <polygon class="fil43" points="13352,6415 13266,6329 13281,6314 13368,6400 "/>
  </g>
 </g>
</svg>
